<?xml version="1.0" encoding="UTF-8" standalone="no"?>
<svg
   xmlns:dc="http://purl.org/dc/elements/1.1/"
   xmlns:cc="http://creativecommons.org/ns#"
   xmlns:rdf="http://www.w3.org/1999/02/22-rdf-syntax-ns#"
   xmlns:svg="http://www.w3.org/2000/svg"
   xmlns="http://www.w3.org/2000/svg"
   viewBox="0 0 195 195"
   height="195"
   width="195"
   xml:space="preserve"
   version="1.1"
   id="svg2"><metadata
     id="metadata8"><rdf:RDF><cc:Work
         rdf:about=""><dc:format>image/svg+xml</dc:format><dc:type
           rdf:resource="http://purl.org/dc/dcmitype/StillImage" /></cc:Work></rdf:RDF></metadata><defs
     id="defs6"><clipPath
       id="clipPath18"
       clipPathUnits="userSpaceOnUse"><path
         id="path20"
         d="M 0,0 156,0 156,156 0,156 0,0 Z" /></clipPath></defs><g
     transform="matrix(1.25,0,0,-1.25,0,195)"
     id="g10"><g
       id="g12" /><g
       id="g14"><g
         clip-path="url(#clipPath18)"
         id="g16"><path
           id="path22"
           style="fill:#ffffff;fill-opacity:0;fill-rule:evenodd;stroke:none"
           d="M 0,0 156,0 156,156 0,156 0,0 Z" /><path
           id="path24"
           style="fill:#4675a3;fill-opacity:1;fill-rule:evenodd;stroke:none"
           d="m 0.8795276,78.05544 c 0,42.62356 34.5532524,77.17686 77.1768524,77.17686 42.62362,0 77.17682,-34.5533 77.17682,-77.17686 0,-42.62361 -34.5532,-77.1768585 -77.17682,-77.1768585 -42.6236,0 -77.1768524,34.5532485 -77.1768524,77.1768585 z" /><g
           transform="translate(30.68409,116.4555)"
           id="g26"><text
             id="text28"
             style="font-variant:normal;font-weight:normal;font-size:18px;font-family:Calibri;-inkscape-font-specification:Calibri;writing-mode:lr-tb;fill:#ffffff;fill-opacity:1;fill-rule:nonzero;stroke:none"
             transform="matrix(1,0,0,-1,27.85301,-18)"><tspan
               id="tspan30"
               y="0"
               x="0 9.2988005 18.795601 22.9284 32.389198 39.438">Poids	</tspan></text>
</g><g
           transform="translate(30.68409,95.45547)"
           id="g32"><text
             id="text34"
             style="font-variant:normal;font-weight:normal;font-size:18px;font-family:Calibri;-inkscape-font-specification:Calibri;writing-mode:lr-tb;fill:#ffffff;fill-opacity:1;fill-rule:nonzero;stroke:none"
             transform="matrix(1,0,0,-1,20.07909,-18)"><tspan
               id="tspan36"
               y="0"
               x="0 14.3784 23.869801 33.327 41.949001 46.080002 50.149799 54.966599">modal	:	</tspan></text>
</g><g
           transform="translate(30.68409,73.45547)"
           id="g38"><text
             id="text40"
             style="font-variant:normal;font-weight:normal;font-size:28px;font-family:Calibri;-inkscape-font-specification:Calibri;writing-mode:lr-tb;fill:#ffffff;fill-opacity:1;fill-rule:nonzero;stroke:none"
             transform="matrix(1,0,0,-1,17.25194,-28)"><tspan
               id="tspan42"
               y="0"
               x="0 14.1904 28.3808 34.703201 47.437599 60.619999">70	kg	</tspan></text>
</g></g></g></g></svg>