<?xml version="1.0" encoding="UTF-8" standalone="no"?>
<svg
   xmlns:dc="http://purl.org/dc/elements/1.1/"
   xmlns:cc="http://creativecommons.org/ns#"
   xmlns:rdf="http://www.w3.org/1999/02/22-rdf-syntax-ns#"
   xmlns:svg="http://www.w3.org/2000/svg"
   xmlns="http://www.w3.org/2000/svg"
   viewBox="0 0 195 195"
   height="195"
   width="195"
   xml:space="preserve"
   version="1.1"
   id="svg2"><metadata
     id="metadata8"><rdf:RDF><cc:Work
         rdf:about=""><dc:format>image/svg+xml</dc:format><dc:type
           rdf:resource="http://purl.org/dc/dcmitype/StillImage" /></cc:Work></rdf:RDF></metadata><defs
     id="defs6"><clipPath
       id="clipPath18"
       clipPathUnits="userSpaceOnUse"><path
         id="path20"
         d="M 0,0 156,0 156,156 0,156 0,0 Z" /></clipPath></defs><g
     transform="matrix(1.25,0,0,-1.25,0,195)"
     id="g10"><g
       id="g12" /><g
       id="g14"><g
         clip-path="url(#clipPath18)"
         id="g16"><path
           id="path22"
           style="fill:#ffffff;fill-opacity:0;fill-rule:evenodd;stroke:none"
           d="M 0,0 156,0 156,156 0,156 0,0 Z" /><path
           id="path24"
           style="fill:#4675a3;fill-opacity:1;fill-rule:evenodd;stroke:none"
           d="m 0.7684252,78.05544 c 0,42.62356 34.5532548,77.17686 77.1768448,77.17686 42.62363,0 77.17683,-34.5533 77.17683,-77.17686 0,-42.62361 -34.5532,-77.1768585 -77.17683,-77.1768585 -42.62359,0 -77.1768448,34.5532485 -77.1768448,77.1768585 z" /><g
           transform="translate(30.57299,116.4555)"
           id="g26"><text
             id="text28"
             style="font-variant:normal;font-weight:normal;font-size:18px;font-family:Calibri;-inkscape-font-specification:Calibri;writing-mode:lr-tb;fill:#ffffff;fill-opacity:1;fill-rule:nonzero;stroke:none"
             transform="matrix(1,0,0,-1,32.80125,-18)"><tspan
               id="tspan30"
               y="0"
               x="0 4.5359998 19.926001 29.5236">IMC	</tspan></text>
</g><g
           transform="translate(30.57299,95.45547)"
           id="g32"><text
             id="text34"
             style="font-variant:normal;font-weight:normal;font-size:18px;font-family:Calibri;-inkscape-font-specification:Calibri;writing-mode:lr-tb;fill:#ffffff;fill-opacity:1;fill-rule:nonzero;stroke:none"
             transform="matrix(1,0,0,-1,15.61864,-18)"><tspan
               id="tspan36"
               y="0"
               x="0 14.3784 23.335199 32.7924 36.923401 45.545399 55.002602 59.072399 63.889198">médian	:	</tspan></text>
</g><g
           transform="translate(30.57299,73.45547)"
           id="g38"><text
             id="text40"
             style="font-variant:normal;font-weight:normal;font-size:28px;font-family:Calibri;-inkscape-font-specification:Calibri;writing-mode:lr-tb;fill:#ffffff;fill-opacity:1;fill-rule:nonzero;stroke:none"
             transform="matrix(1,0,0,-1,33.37108,-28)"><tspan
               id="tspan42"
               y="0"
               x="0 14.1904 28.3808">22	</tspan></text>
</g></g></g></g></svg>